<?xml version="1.0" encoding="utf-8"?>
<!-- Generator: Adobe Illustrator 27.5.0, SVG Export Plug-In . SVG Version: 6.00 Build 0)  -->
<svg version="1.1" xmlns="http://www.w3.org/2000/svg" xmlns:xlink="http://www.w3.org/1999/xlink" x="0px" y="0px"
	 viewBox="0 0 500 500" style="enable-background:new 0 0 500 500;" xml:space="preserve">
<g id="BACKGROUND">
	<rect style="fill:#FFFFFF;" width="500" height="500"/>
</g>
<g id="OBJECT">
	<g>
		<g>
			<path style="fill:#F5F5F5;" d="M259.98,207.863H82.05c-8.082,0-14.634-6.552-14.634-14.634V77.127
				c0-8.082,6.552-14.635,14.634-14.635h177.93c8.082,0,14.634,6.552,14.634,14.635v116.101
				C274.614,201.311,268.062,207.863,259.98,207.863z"/>
			<path style="fill:#D6D6D6;" d="M274.614,82.395v-9.243c0-5.887-4.772-10.659-10.659-10.659H78.074
				c-5.887,0-10.659,4.772-10.659,10.659v9.243H274.614z"/>
			<path style="fill:#F5F5F5;" d="M80.06,73.29c0,1.542-1.25,2.792-2.792,2.792c-1.542,0-2.792-1.25-2.792-2.792
				c0-1.542,1.25-2.792,2.792-2.792C78.81,70.497,80.06,71.748,80.06,73.29z"/>
			<path style="fill:#F5F5F5;" d="M90.247,73.29c0,1.542-1.25,2.792-2.792,2.792c-1.542,0-2.792-1.25-2.792-2.792
				c0-1.542,1.25-2.792,2.792-2.792C88.997,70.497,90.247,71.748,90.247,73.29z"/>
			<path style="fill:#F5F5F5;" d="M100.936,73.29c0,1.542-1.25,2.792-2.792,2.792c-1.542,0-2.792-1.25-2.792-2.792
				c0-1.542,1.25-2.792,2.792-2.792C99.686,70.497,100.936,71.748,100.936,73.29z"/>
			<path style="fill:#F5F5F5;" d="M233.362,76.082H121.486c-1.542,0-2.792-1.25-2.792-2.792l0,0c0-1.542,1.25-2.792,2.792-2.792
				h111.876c1.542,0,2.792,1.25,2.792,2.792l0,0C236.154,74.832,234.904,76.082,233.362,76.082z"/>
			
				<path style="fill:none;stroke:#262626;stroke-width:0.4147;stroke-linecap:round;stroke-linejoin:round;stroke-miterlimit:10;" d="
				M80.06,62.879h185.432c5.038,0,9.122,4.084,9.122,9.122v125.204"/>
			<g>
				<path style="fill:#F5F5F5;" d="M113.89,120.292c-1.171,0.447-1.759,1.759-1.312,2.93l21.473,56.279
					c0.447,1.171,1.759,1.759,2.93,1.312l40.987-15.638c1.171-0.447,1.759-1.759,1.312-2.93l-17.936-47.008l-16.167-6.882
					L113.89,120.292z"/>
				<path style="fill:#D6D6D6;" d="M150.911,119.217l10.433-3.981l-16.167-6.882l3.817,10.005
					C149.287,119.125,150.145,119.509,150.911,119.217z"/>
				
					<path style="fill:none;stroke:#262626;stroke-width:0.274;stroke-linecap:round;stroke-linejoin:round;stroke-miterlimit:10;" d="
					M145.178,108.354l3.817,10.005c0.292,0.766,1.15,1.15,1.916,0.858l10.433-3.981"/>
				<g>
					<path style="fill:#D6D6D6;" d="M144.568,149.718c-0.547-1.434-0.878-2.63-0.993-3.588c-0.115-0.958,0.004-1.923,0.358-2.893
						c0.198-0.577,0.467-1.111,0.808-1.603c0.341-0.492,0.639-0.988,0.893-1.489c0.254-0.5,0.431-1.021,0.532-1.56
						c0.1-0.539,0.016-1.161-0.253-1.866c-0.454-1.19-1.1-1.898-1.937-2.122c-0.837-0.223-1.705-0.164-2.604,0.179
						c-1.288,0.492-2.038,1.189-2.251,2.091c-0.213,0.903-0.148,1.985,0.194,3.246l-4.702,1.794
						c-0.454-1.191-0.673-2.346-0.655-3.467c0.018-1.12,0.255-2.158,0.713-3.112c0.457-0.954,1.12-1.806,1.99-2.555
						c0.869-0.749,1.911-1.356,3.127-1.819c2.625-1.001,4.9-1.257,6.827-0.768c1.927,0.49,3.349,1.938,4.267,4.344
						c0.297,0.778,0.477,1.488,0.542,2.132c0.064,0.644,0.029,1.263-0.106,1.857c-0.135,0.595-0.355,1.187-0.659,1.776
						c-0.304,0.59-0.665,1.214-1.081,1.874c-0.377,0.618-0.662,1.165-0.856,1.642c-0.194,0.478-0.302,0.944-0.323,1.397
						c-0.022,0.454,0.024,0.903,0.138,1.346c0.113,0.444,0.273,0.934,0.477,1.468L144.568,149.718z M147.107,156.809l-1.822-4.775
						l4.921-1.878l1.822,4.775L147.107,156.809z"/>
				</g>
				
					<path style="fill:none;stroke:#262626;stroke-width:0.274;stroke-linecap:round;stroke-linejoin:round;stroke-miterlimit:10;" d="
					M113.89,120.292c-1.171,0.447-1.759,1.759-1.312,2.93l21.473,56.279c0.447,1.171,1.759,1.759,2.93,1.312l40.987-15.638
					c1.171-0.447,1.759-1.759,1.312-2.93l-17.936-47.008l-16.167-6.882L113.89,120.292z"/>
			</g>
			<g>
				<path style="fill:#F5F5F5;" d="M181.633,104.967c-1.156-0.485-2.487,0.06-2.971,1.217l-23.273,55.558
					c-0.484,1.156,0.06,2.487,1.217,2.971l40.462,16.949c1.157,0.484,2.487-0.06,2.971-1.217l19.439-46.406l-6.958-16.134
					L181.633,104.967z"/>
				<path style="fill:#D6D6D6;" d="M209.179,129.725l10.3,4.314l-6.958-16.134l-4.137,9.877
					C208.066,128.538,208.423,129.408,209.179,129.725z"/>
				
					<path style="fill:none;stroke:#262626;stroke-width:0.274;stroke-linecap:round;stroke-linejoin:round;stroke-miterlimit:10;" d="
					M212.521,117.905l-4.137,9.877c-0.317,0.756,0.04,1.626,0.796,1.943l10.3,4.314"/>
				<g>
					<path style="fill:#D6D6D6;" d="M183.548,147.433c0.593-1.415,1.178-2.51,1.756-3.283c0.578-0.773,1.329-1.389,2.254-1.847
						c0.541-0.281,1.104-0.482,1.691-0.603c0.586-0.121,1.144-0.275,1.674-0.462c0.529-0.187,1.016-0.441,1.461-0.763
						c0.445-0.321,0.813-0.829,1.105-1.525c0.492-1.175,0.513-2.133,0.061-2.872c-0.452-0.739-1.122-1.295-2.009-1.667
						c-1.272-0.533-2.296-0.545-3.072-0.039c-0.777,0.507-1.476,1.335-2.098,2.484l-4.642-1.945
						c0.492-1.175,1.131-2.163,1.917-2.962c0.785-0.799,1.673-1.386,2.663-1.761c0.989-0.375,2.057-0.534,3.203-0.477
						c1.146,0.057,2.319,0.337,3.519,0.84c2.591,1.085,4.415,2.47,5.472,4.154c1.057,1.684,1.088,3.713,0.094,6.088
						c-0.322,0.768-0.681,1.407-1.078,1.917c-0.397,0.51-0.85,0.934-1.357,1.271c-0.508,0.337-1.076,0.614-1.702,0.831
						c-0.627,0.217-1.318,0.421-2.075,0.611c-0.699,0.187-1.283,0.386-1.753,0.598c-0.47,0.212-0.869,0.475-1.197,0.789
						c-0.329,0.314-0.605,0.671-0.829,1.07c-0.224,0.4-0.447,0.864-0.667,1.391L183.548,147.433z M180.494,154.318l1.975-4.714
						l4.858,2.035l-1.975,4.714L180.494,154.318z"/>
				</g>
				
					<path style="fill:none;stroke:#262626;stroke-width:0.274;stroke-linecap:round;stroke-linejoin:round;stroke-miterlimit:10;" d="
					M181.633,104.967c-1.156-0.485-2.487,0.06-2.971,1.217l-23.273,55.558c-0.484,1.156,0.06,2.487,1.217,2.971l40.462,16.949
					c1.157,0.484,2.487-0.06,2.971-1.217l19.439-46.406l-6.958-16.134L181.633,104.967z"/>
			</g>
		</g>
		<g>
			<rect x="89.468" y="267.475" style="fill:#F5F5F5;" width="112.923" height="128.034"/>
			<path style="fill:#D6D6D6;" d="M204.59,267.475H87.268c-3.031,0-5.487-2.457-5.487-5.487l0,0c0-3.03,2.457-5.487,5.487-5.487
				H204.59c3.03,0,5.487,2.457,5.487,5.487l0,0C210.077,265.018,207.62,267.475,204.59,267.475z"/>
			<rect x="98.712" y="279.668" style="opacity:0.5;fill:#D6D6D6;" width="94.434" height="32.923"/>
			<rect x="98.712" y="357.49" style="opacity:0.5;fill:#D6D6D6;" width="94.434" height="32.923"/>
			<rect x="98.712" y="318.579" style="opacity:0.5;fill:#D6D6D6;" width="94.434" height="32.923"/>
			<rect x="139.782" y="293.234" style="fill:#D6D6D6;" width="12.293" height="5.792"/>
			<rect x="139.782" y="332.145" style="fill:#D6D6D6;" width="12.293" height="5.792"/>
			<rect x="139.782" y="371.055" style="fill:#D6D6D6;" width="12.293" height="5.792"/>
		</g>
		
			<line style="fill:none;stroke:#262626;stroke-width:0.733;stroke-linecap:round;stroke-linejoin:round;stroke-miterlimit:10;" x1="465.083" y1="395.602" x2="40.42" y2="395.602"/>
		<ellipse style="fill:#F5F5F5;" cx="250" cy="439.42" rx="222.42" ry="36.046"/>
		<g>
			<polygon style="fill:#D6D6D6;" points="419.313,434.438 415.172,434.974 392.889,295.432 405.314,293.823 			"/>
			<polygon style="fill:#D6D6D6;" points="284.683,429.775 288.824,430.311 311.107,290.769 298.682,289.16 			"/>
			<polygon style="fill:#D6D6D6;" points="363.037,433.183 358.896,433.719 336.613,294.177 349.038,292.568 			"/>
			<path style="fill:#F5F5F5;" d="M407.672,323.374H302.538l3.772-32.892h115.108l-2.727,22.917
				C418.114,318.908,413.181,323.374,407.672,323.374z"/>
			<path style="fill:#F5F5F5;" d="M413.365,313.306h-64.773c-2.849,0-4.877-2.31-4.529-5.159l15.048-123.134
				c0.348-2.849,2.94-5.159,5.79-5.159h64.773c2.849,0,4.877,2.31,4.529,5.159l-15.048,123.134
				C418.806,310.996,416.214,313.306,413.365,313.306z"/>
			<path style="fill:#D6D6D6;" d="M403.008,313.306h-64.773c-2.849,0-4.877-2.31-4.529-5.159l15.048-123.134
				c0.348-2.849,2.94-5.159,5.79-5.159h64.773c2.849,0,4.877,2.31,4.529,5.159l-15.048,123.134
				C408.449,310.996,405.857,313.306,403.008,313.306z"/>
		</g>
		<g>
			<g>
				<polygon style="fill:#F7A99C;" points="315.008,403.918 308.02,387.112 338.971,374.241 358.19,420.458 288.771,450.64 
					285.276,442.237 				"/>
				<path style="fill:#FFC001;" d="M286.297,451.669l-1.657-3.984c-1.694-4.073-1.017-8.748,1.763-12.173l22.859-28.163
					c9.84-1.261,16.527-4.438,20.865-7.171c7.202-4.538,13.144-11.138,16.86-9.229c1.063,0.546,1.608,1.615,1.896,2.387
					l10.163,24.439c0.713,1.715-0.099,3.682-1.813,4.395L286.297,451.669z"/>
				
					<line style="fill:none;stroke:#3897E9;stroke-width:0.733;stroke-linecap:round;stroke-linejoin:round;stroke-miterlimit:10;" x1="285.19" y1="449.008" x2="359.23" y2="418.218"/>
				
					<line style="fill:none;stroke:#3897E9;stroke-width:0.733;stroke-linecap:round;stroke-linejoin:round;stroke-miterlimit:10;" x1="294.681" y1="425.819" x2="301.108" y2="429.576"/>
				
					<line style="fill:none;stroke:#3897E9;stroke-width:0.733;stroke-linecap:round;stroke-linejoin:round;stroke-miterlimit:10;" x1="297.006" y1="422.84" x2="303.433" y2="426.597"/>
				
					<line style="fill:none;stroke:#3897E9;stroke-width:0.733;stroke-linecap:round;stroke-linejoin:round;stroke-miterlimit:10;" x1="299.52" y1="419.93" x2="305.947" y2="423.686"/>
				
					<path style="fill:none;stroke:#3897E9;stroke-width:0.733;stroke-linecap:round;stroke-linejoin:round;stroke-miterlimit:10;" d="
					M302.986,415.08c5.819-0.173,15.131-1.163,25.572-5.572c10.073-4.253,17.101-9.959,21.267-13.907"/>
			</g>
			<g>
				<polygon style="fill:#F7A99C;" points="213.6,417.53 223.504,398.242 248.906,397.936 246.711,449.808 171.015,450.054 
					171.131,440.954 				"/>
				<path style="fill:#FFC001;" d="M168.335,450.02l0.055-4.315c0.056-4.411,2.528-8.436,6.437-10.481l32.138-16.818
					c9.535,2.736,16.934,2.465,21.999,1.672c8.41-1.317,16.478-5.027,19.136-1.803c0.76,0.922,0.837,2.12,0.797,2.943l-0.338,26.466
					c-0.024,1.857-1.548,3.343-3.405,3.319L168.335,450.02z"/>
				
					<line style="fill:none;stroke:#3897E9;stroke-width:0.733;stroke-linecap:round;stroke-linejoin:round;stroke-miterlimit:10;" x1="168.372" y1="447.138" x2="248.553" y2="448.163"/>
				
					<line style="fill:none;stroke:#3897E9;stroke-width:0.733;stroke-linecap:round;stroke-linejoin:round;stroke-miterlimit:10;" x1="186.266" y1="429.598" x2="190.681" y2="435.591"/>
				
					<line style="fill:none;stroke:#3897E9;stroke-width:0.733;stroke-linecap:round;stroke-linejoin:round;stroke-miterlimit:10;" x1="189.58" y1="427.782" x2="193.995" y2="433.776"/>
				
					<line style="fill:none;stroke:#3897E9;stroke-width:0.733;stroke-linecap:round;stroke-linejoin:round;stroke-miterlimit:10;" x1="193.04" y1="426.104" x2="197.456" y2="432.098"/>
				
					<path style="fill:none;stroke:#3897E9;stroke-width:0.733;stroke-linecap:round;stroke-linejoin:round;stroke-miterlimit:10;" d="
					M198.143,423.023c5.413,2.144,14.356,4.92,25.689,5.003c10.934,0.08,19.646-2.378,25.034-4.355"/>
			</g>
			<path style="fill:#FF7129;" d="M337.134,256.361c0,0-70.853,20.669-74.522,26.63c-3.669,5.962-2.293,19.032,0,27.516
				c2.293,8.484,36.129,92.866,36.129,92.866l48.483-18.115l-33.248-86.904l62.369-31.643L337.134,256.361z"/>
			<path style="fill:#E05C22;" d="M288.837,380.074c0,0,19.52-26.344,22.501-28.637s18.344-12.267,18.344-12.267l3.985,10.656
				l-41.421,37.291L288.837,380.074z"/>
			<path style="fill:#FF7129;" d="M396.752,274.672c0,0,3.669,13.501,1.834,18.018c-1.834,4.517-84.382,56.339-86.217,59.549
				c-1.834,3.21-52.739,61.403-52.739,61.403l-53.656-10.584c0,0,52.739-69.622,65.58-80.17
				c12.841-10.548,71.083-61.249,71.083-61.249L396.752,274.672z"/>
			<path style="fill:#3897E9;" d="M382.051,177.816l27.324-15.169c1.281-0.711,1.47-2.477,0.368-3.443l-14.687-12.878l-4.828-16.872
				c5.021-0.36,21.086-0.868,35.122,10.108c3.725,2.913,16.928,13.237,15.431,25.016c-0.962,7.572-9.111,13.803-25.41,26.267
				c-4.718,3.608-8.794,6.442-11.719,8.407L382.051,177.816z"/>
			<path style="fill:#F7A99C;" d="M391.001,132.158c0,0-8.186-3.095-9.57-3.346c-1.384-0.251-15.445,3.993-15.445,3.993l0.586,3.078
				c0,0,10.513,0.472,11.006,0.765c0.493,0.293,6.766,6.781,8.084,7.331s9.047,1.135,9.047,1.135L391.001,132.158z"/>
			<path style="fill:#3897E9;" d="M364.631,176.377l-25.222-18.453c-1.183-0.865-1.15-2.641,0.063-3.463l16.177-10.949l6.892-16.14
				c-4.937-0.982-20.814-3.487-36.107,5.656c-4.059,2.427-18.444,11.026-18.426,22.9c0.012,7.632,7.322,14.831,21.942,29.227
				c4.232,4.168,7.924,7.487,10.581,9.801L364.631,176.377z"/>
			<path style="fill:#F7A99C;" d="M361.436,129.961c0,0,8.508-2.052,9.912-2.128c1.404-0.076,14.827,5.885,14.827,5.885
				l-0.964,2.981c0,0-10.49-0.841-11.016-0.611c-0.526,0.229-7.558,5.885-8.934,6.268c-1.376,0.382-9.118,0-9.118,0L361.436,129.961
				z"/>
			<path style="fill:#3897E9;" d="M364.631,176.377l18.115,1.366c9.704,4.423,14.997,9.932,17.827,13.529
				c3.188,4.051,11.13,15.691,9.325,71.236c-0.263,8.084-0.652,14.636-0.918,18.65l-91.414-24.796
				c1.058-3.639,11.314-38.586,22.013-59.586c2.814-5.525,6.695-12.117,14.217-16.51
				C358.035,177.79,362.059,176.814,364.631,176.377z"/>
			<g>
				<path style="fill:#F7A99C;" d="M372.857,185.416L372.857,185.416c4.991,0.469,9.416-3.197,9.885-8.188l1.827-19.446
					l-18.073-1.698l-1.827,19.446C364.201,180.521,367.866,184.947,372.857,185.416z"/>
				<path style="fill:#FF7769;" d="M365.181,170.087l12.319-4.988c-0.211,1.009-1.311,5.724-5.807,8.644
					c-2.871,1.864-5.733,2.091-7.047,2.11L365.181,170.087z"/>
				<path style="fill:#F7A99C;" d="M385.551,151.795c0.083-0.289,0.898-0.663,1.15-0.794c0.425-0.221,0.878-0.387,1.346-0.492
					c0.908-0.204,1.883-0.183,2.77,0.106c1.765,0.576,3.227,2.234,3.36,4.116c0.077,1.093-0.272,2.185-0.823,3.133
					c-0.828,1.424-2.118,2.568-3.614,3.259c-1.24,0.573-2.615,0.836-3.978,0.795c-0.273-0.008-3.045-0.323-3.015-0.427
					C383.681,158.258,384.616,155.027,385.551,151.795z"/>
				<path style="fill:#F7A99C;" d="M388.012,152.207c-0.345,1.432-2.31,8.973-9.698,13.76c-1.361,0.882-10.408,6.744-17.849,2.815
					c-9.561-5.049-7.007-21.27-6.857-22.148c0.506-2.967,1.996-11.703,9.707-15.742c6.293-3.296,12.611-1.306,13.505-1.009
					c0.943,0.313,6.939,2.414,10.151,8.768C389.887,144.417,388.576,149.863,388.012,152.207z"/>
				<path style="fill:#262626;" d="M359.246,147.153c-0.275,1.26-1.341,2.097-2.38,1.87c-1.04-0.227-1.66-1.432-1.385-2.691
					c0.275-1.259,1.341-2.097,2.38-1.87C358.901,144.689,359.521,145.893,359.246,147.153z"/>
				<path style="fill:#262626;" d="M370.596,149.629c-0.275,1.26-1.341,2.097-2.38,1.87c-1.04-0.227-1.66-1.432-1.385-2.692
					c0.275-1.26,1.341-2.097,2.38-1.87C370.251,147.165,370.871,148.37,370.596,149.629z"/>
				
					<path style="fill:none;stroke:#262626;stroke-width:0.733;stroke-linecap:round;stroke-linejoin:round;stroke-miterlimit:10;" d="
					M362.54,149.372l-1.974,2.219c-0.363,0.408-0.297,1.039,0.141,1.364l1.527,1.13"/>
				<path style="fill:#FF7769;" d="M373.907,155.977c-0.308,1.413-1.704,2.309-3.117,2.001s-2.309-1.704-2.001-3.118
					c0.308-1.413,1.704-2.309,3.117-2.001S374.215,154.564,373.907,155.977z"/>
				
					<path style="fill:none;stroke:#262626;stroke-width:0.733;stroke-linecap:round;stroke-linejoin:round;stroke-miterlimit:10;" d="
					M386.175,158.442c0.017-0.287,0.168-2.23,1.852-3.491c1.319-0.987,2.745-0.931,3.133-0.903"/>
				
					<path style="fill:none;stroke:#262626;stroke-width:0.733;stroke-linecap:round;stroke-linejoin:round;stroke-miterlimit:10;" d="
					M387.841,155.32c0.088-0.006,1.145-0.056,1.803,0.798c0.541,0.703,0.414,1.501,0.391,1.633"/>
				<path style="fill:#262626;" d="M388.401,150.445c0,0-1.296-0.002-2.35,0.872c-1.054,0.873-1.546,2.489-1.546,2.489
					c-1.514-0.05-3.709-0.369-5.521-1.852c-2.819-2.307-1.765-5.02-4.092-6.848c-2.186-1.718-4.024-0.035-12.077-0.459
					c-6.329-0.333-8.125-1.526-8.226-2.362c-0.033-0.273,0.091-0.771,0.371-1.758c0.107-0.378,0.234-0.941,0.47-1.468
					c0.462-1.034,1.029-2.02,1.684-2.943c1.312-1.847,2.979-3.442,4.883-4.669c1.237-0.797,2.575-1.439,3.977-1.891
					c4.45-1.436,10.401-0.902,15.276,2.291c0,0,5.444,3.565,7.426,9.761c0.681,2.13,0.714,4.2,0.705,4.916
					c-0.018,1.418-0.26,2.325-0.538,3.012C388.687,149.926,388.522,150.235,388.401,150.445z"/>
				<path style="fill:#FF7769;" d="M354.662,150.084c-0.489-0.107-0.973-0.061-1.413,0.092c-0.076,1.405-0.094,3.116,0.051,4.946
					c0.082,0.027,0.16,0.061,0.246,0.08c1.413,0.308,2.809-0.587,3.117-2.001C356.971,151.788,356.075,150.392,354.662,150.084z"/>
				<path style="fill:#262626;" d="M363.771,140.946c-1.585,3.03-5.916,3.893-9.674,1.927c-3.758-1.965-5.521-6.015-3.936-9.045
					c1.585-3.03,5.916-3.893,9.674-1.927C363.594,133.866,365.356,137.916,363.771,140.946z"/>
				
					<path style="fill:none;stroke:#262626;stroke-width:0.733;stroke-linecap:round;stroke-linejoin:round;stroke-miterlimit:10;" d="
					M360.331,158.864c0.39-0.367,1.289-1.114,2.675-1.452c1.35-0.33,2.464-0.102,2.981,0.038"/>
			</g>
			
				<line style="fill:none;stroke:#262626;stroke-width:0.733;stroke-linecap:round;stroke-linejoin:round;stroke-miterlimit:10;" x1="268.232" y1="326.004" x2="342.637" y2="261.641"/>
			
				<path style="fill:none;stroke:#262626;stroke-width:0.733;stroke-linecap:round;stroke-linejoin:round;stroke-miterlimit:10;" d="
				M289.252,379.595c0,0,20.61-25.252,23.118-27.355c2.507-2.103,17.491-12.364,17.491-12.364"/>
			
				<path style="fill:none;stroke:#FFFFFF;stroke-width:0.733;stroke-linecap:round;stroke-linejoin:round;stroke-miterlimit:10;" d="
				M398.585,283.381c0,0-84.658,56.018-89.029,59.076c-4.371,3.057-57.443,69.704-57.443,69.704"/>
			
				<line style="fill:none;stroke:#FFFFFF;stroke-width:0.733;stroke-linecap:round;stroke-linejoin:round;stroke-miterlimit:10;" x1="340.921" y1="387.614" x2="322.21" y2="345.013"/>
			
				<line style="fill:none;stroke:#262626;stroke-width:0.733;stroke-linecap:round;stroke-linejoin:round;stroke-miterlimit:10;" x1="395.908" y1="170.124" x2="414.943" y2="159.781"/>
			
				<line style="fill:none;stroke:#262626;stroke-width:0.733;stroke-linecap:round;stroke-linejoin:round;stroke-miterlimit:10;" x1="349.015" y1="164.952" x2="333.771" y2="153.805"/>
			
				<line style="fill:none;stroke:#262626;stroke-width:0.733;stroke-linecap:round;stroke-linejoin:round;stroke-miterlimit:10;" x1="341.393" y1="192.342" x2="332.455" y2="212.728"/>
			
				<path style="fill:none;stroke:#262626;stroke-width:0.733;stroke-linecap:round;stroke-linejoin:round;stroke-miterlimit:10;" d="
				M402.965,194.958c0,0,1.84,3.27,2.913,7.576c1.072,4.306,3.361,20.352,3.361,20.352"/>
			<path style="fill:#1775AF;" d="M409.572,227.273l-0.591,53.884l-72.662-19.71c7.474,0.802,31.363,2.39,53.324-13.08
				C399.534,241.4,405.808,233.244,409.572,227.273z"/>
			
				<path style="fill:none;stroke:#FFFFFF;stroke-width:0.733;stroke-linecap:round;stroke-linejoin:round;stroke-miterlimit:10;" d="
				M325.78,137.961c-3.125,2.576-6.556,4.922-9.471,7.734c-3.097,2.988-5.402,7.283-3.9,11.619c0.594,1.717,1.505,3.082,3.605,5.729
				c1.969,2.482,3.888,4.307,5.299,5.527"/>
			<circle style="fill:#FFFFFF;" cx="372.293" cy="188.992" r="1.841"/>
			<circle style="fill:#FFFFFF;" cx="371.837" cy="196.272" r="1.841"/>
			<circle style="fill:#FFFFFF;" cx="371.073" cy="204.407" r="1.841"/>
		</g>
		<path style="fill:#FFC001;" d="M407.363,293.823H86.536c-6.6,0-11.951-5.35-11.951-11.951l0,0c0-6.6,5.35-11.951,11.951-11.951
			h320.826c6.6,0,11.95,5.35,11.95,11.951l0,0C419.313,288.472,413.963,293.823,407.363,293.823z"/>
		<polygon style="fill:#FFC001;" points="412.684,449.586 407.798,450.219 381.51,285.592 396.168,283.694 		"/>
		<polygon style="fill:#FFC001;" points="85.026,449.586 89.912,450.219 116.2,285.592 101.542,283.694 		"/>
		
			<line style="fill:none;stroke:#262626;stroke-width:0.733;stroke-linecap:round;stroke-linejoin:round;stroke-miterlimit:10;" x1="423.359" y1="188.992" x2="413.652" y2="268.424"/>
		
			<line style="fill:none;stroke:#262626;stroke-width:0.733;stroke-linecap:round;stroke-linejoin:round;stroke-miterlimit:10;" x1="433.491" y1="190.833" x2="418.505" y2="314.529"/>
		
			<line style="fill:none;stroke:#FFFFFF;stroke-width:0.733;stroke-linecap:round;stroke-linejoin:round;stroke-miterlimit:10;" x1="243.732" y1="275.501" x2="394.187" y2="275.501"/>
		
			<line style="fill:none;stroke:#FFFFFF;stroke-width:0.733;stroke-linecap:round;stroke-linejoin:round;stroke-miterlimit:10;" x1="237.618" y1="275.501" x2="220.497" y2="275.501"/>
		
			<line style="fill:none;stroke:#262626;stroke-width:0.733;stroke-linecap:round;stroke-linejoin:round;stroke-miterlimit:10;" x1="100.533" y1="293.823" x2="90.617" y2="393.428"/>
		
			<line style="fill:none;stroke:#262626;stroke-width:0.733;stroke-linecap:round;stroke-linejoin:round;stroke-miterlimit:10;" x1="382.824" y1="293.823" x2="398.279" y2="390.611"/>
		<path style="fill:#3849C6;" d="M322.508,250.737h-87.146c-3.105,0-6.061-2.517-6.603-5.622l-10.035-57.478
			c-0.542-3.105,1.535-5.622,4.64-5.622h87.146c3.105,0,6.061,2.517,6.603,5.622l10.035,57.478
			C327.69,248.22,325.613,250.737,322.508,250.737z"/>
		<path style="fill:#4450E4;" d="M316.956,250.737H229.81c-3.105,0-6.061-2.517-6.603-5.622l-10.035-57.478
			c-0.542-3.105,1.535-5.622,4.64-5.622h87.146c3.105,0,6.061,2.517,6.603,5.622l10.035,57.478
			C322.139,248.22,320.061,250.737,316.956,250.737z"/>
		<path style="fill:#3849C6;" d="M274.922,269.922h-28.899l11.253-49.583c0.328-1.448,1.768-2.621,3.216-2.621h23.656
			c1.448,0,2.355,1.174,2.026,2.621L274.922,269.922z"/>
		<path style="fill:#4450E4;" d="M271.372,269.922h-28.899l11.253-49.583c0.329-1.448,1.768-2.621,3.216-2.621h23.656
			c1.448,0,2.355,1.174,2.026,2.621L271.372,269.922z"/>
		<path style="fill:none;stroke:#262626;stroke-width:0.733;stroke-linecap:round;stroke-linejoin:round;stroke-miterlimit:10;" d="
			M280.625,220.339"/>
		<path style="fill:none;stroke:#262626;stroke-width:0.733;stroke-linecap:round;stroke-linejoin:round;stroke-miterlimit:10;" d="
			M242.473,269.922l11.253-49.583c0.329-1.448,1.768-2.621,3.216-2.621h23.656"/>
		<path style="fill:none;stroke:#262626;stroke-width:0.733;stroke-linecap:round;stroke-linejoin:round;stroke-miterlimit:10;" d="
			M232.372,269.922"/>
		<path style="fill:#4450E4;" d="M360.257,269.922h-82.181v-2.773c0-0.959,0.778-1.737,1.737-1.737h78.707
			c0.959,0,1.737,0.778,1.737,1.737V269.922z"/>
		<polygon style="fill:#FDB6D6;" points="382.646,119.066 379.953,117.654 390.359,93.598 397.213,97.191 		"/>
		<polygon style="fill:#FDB6D6;" points="387.596,122.465 386.115,119.81 407.988,105.368 411.758,112.126 		"/>
		<polygon style="fill:#FDB6D6;" points="376.335,115.33 373.384,116.064 365.174,91.172 372.684,89.303 		"/>
		<g>
			<path style="fill:#94E261;" d="M181.942,257.139c0.439-3.037,1.439-7.515,3.946-12.385c1.386-2.692,3.659-7.109,7.881-10.392
				c8.121-6.315,18.556-4.631,21.192-4.127c-2.953,0.637-9.151,2.416-14.584,7.762c-1.469,1.446-4.401,4.39-6.226,9.053
				c-1.702,4.35-2.518,10.396-2.523,10.395c0,0,0,0,0,0L181.942,257.139z"/>
			<path style="fill:#94E261;" d="M190.845,253.1c0.584-3.012,1.113-7.57,0.348-12.994c-0.423-2.998-1.117-7.917-4.024-12.406
				c-5.591-8.635-15.999-10.478-18.655-10.869c2.579,1.572,7.847,5.292,11.219,12.127c0.912,1.849,2.712,5.594,2.901,10.598
				c0.176,4.668-1.042,10.646-1.038,10.646c0,0,0,0,0,0L190.845,253.1z"/>
			<path style="fill:#94E261;" d="M187.236,256.458c-0.065-2.58-0.455-6.42-2.065-10.737c-0.89-2.387-2.35-6.301-5.55-9.463
				c-6.155-6.082-15.039-5.712-17.291-5.553c2.404,0.825,7.404,2.927,11.411,7.932c1.084,1.354,3.24,4.104,4.301,8.181
				c0.99,3.803,1.07,8.934,1.074,8.933v0L187.236,256.458z"/>
			<path style="fill:#94E261;" d="M189.322,257.445c0.04-1.597,0.282-3.973,1.278-6.645c0.551-1.477,1.454-3.9,3.435-5.856
				c3.809-3.764,9.307-3.535,10.701-3.436c-1.487,0.511-4.582,1.811-7.062,4.909c-0.671,0.838-2.005,2.54-2.662,5.063
				c-0.613,2.353-0.663,5.529-0.665,5.529v0L189.322,257.445z"/>
			
				<path style="fill:none;stroke:#262626;stroke-width:0.274;stroke-linecap:round;stroke-linejoin:round;stroke-miterlimit:10;" d="
				M162.329,230.706c9.796,1.978,13.915,5.869,15.84,9.182c3.135,5.396,3.773,14.977,3.773,14.977l0,0"/>
			
				<path style="fill:none;stroke:#262626;stroke-width:0.274;stroke-linecap:round;stroke-linejoin:round;stroke-miterlimit:10;" d="
				M168.827,216.879c3.456,1.426,10.61,5.004,14.905,12.686c2.779,4.969,3.416,9.967,3.821,13.146c0.6,4.702,0.353,8.68,0,11.465"/>
			
				<path style="fill:none;stroke:#262626;stroke-width:0.274;stroke-linecap:round;stroke-linejoin:round;stroke-miterlimit:10;" d="
				M214.961,230.235c-0.933-0.158-11.047-1.695-18.54,5.903c-6.784,6.878-6.011,15.758-5.885,16.962"/>
			
				<path style="fill:none;stroke:#262626;stroke-width:0.274;stroke-linecap:round;stroke-linejoin:round;stroke-miterlimit:10;" d="
				M204.736,241.507c-0.688,0.016-6.167,0.232-9.615,4.873c-2.671,3.594-2.391,7.51-2.293,8.484"/>
		</g>
		<path style="fill:#FDB6D6;" d="M189.276,270.808h-4.471c-4.13,0-7.477-3.348-7.477-7.477v-11.325h19.426v11.325
			C196.753,267.46,193.405,270.808,189.276,270.808z"/>
		<path style="fill:none;stroke:#FFFFFF;stroke-width:0.733;stroke-linecap:round;stroke-linejoin:round;stroke-miterlimit:10;" d="
			M194.607,256.458v5.503c0,3.293-2.669,5.962-5.962,5.962h-1.605"/>
		<g>
			<path style="fill:#FDB6D6;" d="M65.318,190.499c-0.751-3.542-1.086-6.452-1.004-8.728c0.082-2.276,0.712-4.48,1.891-6.612
				c0.672-1.272,1.494-2.418,2.47-3.442c0.974-1.021,1.85-2.07,2.627-3.145c0.775-1.073,1.378-2.222,1.81-3.443
				c0.431-1.221,0.463-2.701,0.093-4.443c-0.624-2.941-1.871-4.826-3.74-5.653c-1.869-0.827-3.916-1.005-6.136-0.534
				c-3.183,0.675-5.186,2.027-6.011,4.051c-0.826,2.027-1.07,4.572-0.733,7.638l-11.617,2.464c-0.624-2.941-0.711-5.715-0.26-8.321
				c0.451-2.604,1.384-4.936,2.799-6.993c1.414-2.056,3.272-3.799,5.573-5.229c2.299-1.429,4.951-2.462,7.954-3.099
				c6.484-1.375,11.882-1.139,16.196,0.706c4.312,1.847,7.1,5.741,8.36,11.685c0.408,1.922,0.568,3.644,0.484,5.168
				c-0.085,1.524-0.394,2.954-0.925,4.29c-0.533,1.336-1.261,2.636-2.185,3.898c-0.925,1.264-1.993,2.587-3.204,3.973
				c-1.105,1.302-1.97,2.473-2.596,3.515c-0.626,1.043-1.048,2.09-1.263,3.138c-0.217,1.05-0.274,2.114-0.171,3.189
				c0.102,1.077,0.295,2.276,0.575,3.596L65.318,190.499z M68.645,207.957l-2.503-11.798L78.3,193.58l2.502,11.798L68.645,207.957z"
				/>
		</g>
	</g>
</g>
</svg>
